<svg xmlns="http://www.w3.org/2000/svg" viewBox="0 0 64 64">
  <rect width="64" height="64" rx="12" fill="#1A1A2E"/>
  <g transform="translate(32 32) scale(0.42) translate(-156 -420)">
    <path fill="#FAF8F3" d="M176.1,406.78a5.77,5.77,0,0,1,0-1.38c1.63-6.46-.36-12.06-5.93-15.86a20.08,20.08,0,0,0-17.82-2.87,12.29,12.29,0,0,0-9.1,10.24c-.92,5.27.92,9.66,5.37,12.51,4.12,2.64,8.57,4.74,12.9,7,3.52,1.87,7.15,3.55,10.59,5.55,7.28,4.23,10.8,10.56,9.41,19-1.32,8.07-6.89,12.55-14.3,14.69-8.53,2.47-16.89,1.94-24.23-3.61-5.75-4.34-8.37-10.21-7-17.51a19.88,19.88,0,0,1,1.23-3.29l.6.14a3.22,3.22,0,0,1,.07,1.26c-2.55,7-.29,12.73,4.91,17.53,6.94,6.4,18.6,7.47,26.22,2.54s8.74-15.28,1.56-21c-4.24-3.35-9.43-5.5-14.22-8.14-3.77-2.08-7.77-3.82-11.35-6.2-6.24-4.14-9-10.15-7.78-17.63,1.26-7.81,6.37-12.34,13.65-14.24,6.43-1.68,12.88-1.33,18.86,2.1s9.34,10.44,7.95,16.9a15.09,15.09,0,0,1-.94,2.38Z"/>
  </g>
  <circle cx="50" cy="14" r="3" fill="#C4A882"/>
</svg>
